<svg width="361" height="102" viewBox="0 0 361 102" fill="none" xmlns="http://www.w3.org/2000/svg">
  <path
    d="M3 43.04C2.6 43.04 2.28 42.84 2.04 42.44C1.72 42.04 1.72 41.6 2.04 41.12C3.88 38.72 5.68 36.08 7.44 33.2C9.28 30.24 10.84 27.52 12.12 25.04C13.48 22.48 14.4 20.64 14.88 19.52C16.16 16.4 17.68 14.2 19.44 12.92C21.2 11.56 22.88 10.88 24.48 10.88C26.24 10.88 27.72 11.48 28.92 12.68C30.2 13.88 30.84 15.4 30.84 17.24C30.84 18.2 30.52 19.4 29.88 20.84C29.64 21.32 29.28 21.56 28.8 21.56C28.4 21.56 28.04 21.4 27.72 21.08C27.48 20.76 27.48 20.36 27.72 19.88C28.12 18.92 28.32 18.08 28.32 17.36C28.32 16.24 27.96 15.28 27.24 14.48C26.52 13.68 25.6 13.28 24.48 13.28C23.28 13.28 22 13.84 20.64 14.96C19.36 16.08 18.16 17.92 17.04 20.48C16.56 21.68 15.64 23.56 14.28 26.12C12.92 28.68 11.32 31.44 9.48 34.4C7.64 37.36 5.8 40.08 3.96 42.56C3.72 42.88 3.4 43.04 3 43.04ZM30.48 57.32C29.44 57.32 28.56 57.08 27.84 56.6C26.48 55.72 25.8 54.44 25.8 52.76C25.8 51 26.36 49.12 27.48 47.12C28.68 45.04 29.96 43.12 31.32 41.36C32.76 39.52 33.76 38.08 34.32 37.04C34.96 36 35.6 34.96 36.24 33.92C36.88 32.88 37.2 31.76 37.2 30.56C37.2 29.92 37 29.28 36.6 28.64C36.2 27.92 35.36 27.32 34.08 26.84C32.8 26.28 30.76 26 27.96 26C27.4 26 26.76 26.04 26.04 26.12C25.32 26.2 24.52 26.24 23.64 26.24H23.52C22.72 26.24 22.32 25.84 22.32 25.04C22.32 24.24 22.68 23.84 23.4 23.84C24.04 23.76 24.72 23.72 25.44 23.72C26.16 23.64 26.84 23.6 27.48 23.6C30.6 23.6 33.4 24.08 35.88 25.04C38.44 25.92 39.72 27.64 39.72 30.2C39.72 31.8 39.16 33.6 38.04 35.6C36.6 38.32 34.92 40.88 33 43.28C31.16 45.6 29.64 48.16 28.44 50.96C28.36 51.2 28.28 51.44 28.2 51.68C28.2 51.92 28.2 52.16 28.2 52.4C28.2 53.44 28.52 54.16 29.16 54.56C29.56 54.8 30 54.92 30.48 54.92C31.68 54.92 33.12 54.36 34.8 53.24C36.56 52.04 38.32 50.64 40.08 49.04C41.92 47.36 43.56 45.8 45 44.36C46.44 42.84 47.44 41.72 48 41C48.24 40.68 48.52 40.52 48.84 40.52C49.24 40.52 49.6 40.76 49.92 41.24C50.24 41.64 50.2 42.08 49.8 42.56C48.92 43.68 47.28 45.44 44.88 47.84C42.48 50.16 40 52.32 37.44 54.32C34.88 56.32 32.56 57.32 30.48 57.32ZM2.16 53.6C1.68 53.6 1.32 53.36 1.08 52.88C0.76 52.4 0.84 51.96 1.32 51.56C3.96 49 6.48 46.16 8.88 43.04C11.28 39.84 13.32 36.92 15 34.28C16.76 31.64 17.84 29.8 18.24 28.76C18.48 28.28 18.84 28.04 19.32 28.04C19.72 28.04 20.04 28.2 20.28 28.52C20.52 28.84 20.56 29.24 20.4 29.72C20 30.84 18.92 32.76 17.16 35.48C15.4 38.2 13.28 41.2 10.8 44.48C8.32 47.68 5.72 50.6 3 53.24C2.76 53.48 2.48 53.6 2.16 53.6ZM24.6 66.2C21.88 66.2 19.48 65.52 17.4 64.16C15.4 62.8 14.4 60.52 14.4 57.32C14.4 54.76 15.12 51.96 16.56 48.92C18 45.8 19.68 42.8 21.6 39.92C23.52 36.96 25.24 34.44 26.76 32.36C27 32.04 27.32 31.88 27.72 31.88C28.12 31.88 28.48 32.08 28.8 32.48C29.12 32.88 29.08 33.32 28.68 33.8C27.32 35.72 25.68 38.08 23.76 40.88C21.92 43.68 20.28 46.56 18.84 49.52C17.48 52.4 16.8 55 16.8 57.32C16.8 59.48 17.44 61.12 18.72 62.24C20.08 63.28 21.88 63.8 24.12 63.8C27 63.8 30.12 63.04 33.48 61.52C36.92 60 39.56 58.08 41.4 55.76C41.64 55.44 41.96 55.28 42.36 55.28C42.76 55.28 43.12 55.52 43.44 56C43.76 56.4 43.72 56.8 43.32 57.2C41.16 59.76 38.32 61.92 34.8 63.68C31.28 65.36 27.88 66.2 24.6 66.2ZM57.9403 57.92C56.0203 57.92 54.7403 57.16 54.1003 55.64C53.5403 54.04 53.2603 52.72 53.2603 51.68C53.2603 49.68 53.9403 47.32 55.3003 44.6C56.6603 41.88 58.4203 39.2 60.5803 36.56C62.7403 33.92 65.0603 31.72 67.5403 29.96C70.0203 28.2 72.3803 27.32 74.6203 27.32C75.7403 27.32 76.3003 27.72 76.3003 28.52C76.3003 28.84 76.1803 29.16 75.9403 29.48C75.7003 29.72 75.3803 29.8 74.9803 29.72C73.2203 29.56 71.2203 30.28 68.9803 31.88C66.8203 33.4 64.7003 35.4 62.6203 37.88C60.6203 40.28 58.9403 42.72 57.5803 45.2C56.3003 47.68 55.6603 49.84 55.6603 51.68C55.6603 52.8 55.8603 53.72 56.2603 54.44C56.6603 55.16 57.2203 55.52 57.9403 55.52C59.3003 55.52 60.8603 54.72 62.6203 53.12C64.4603 51.44 66.3403 49.36 68.2603 46.88C70.1803 44.32 72.0203 41.68 73.7803 38.96C75.6203 36.16 77.2203 33.64 78.5803 31.4C80.0203 29.08 81.1003 27.36 81.8203 26.24C83.3403 24 84.8603 22.44 86.3803 21.56C87.9003 20.6 89.3003 20.12 90.5803 20.12C92.0203 20.12 93.1803 20.56 94.0603 21.44C95.0203 22.32 95.5003 23.44 95.5003 24.8C95.5003 26 95.0603 27.28 94.1803 28.64C93.5403 29.6 92.5003 31.2 91.0603 33.44C89.6203 35.6 88.1403 37.96 86.6203 40.52C85.1003 43 83.8203 45.28 82.7803 47.36C81.6603 49.76 81.1003 51.68 81.1003 53.12C81.1003 54.72 81.9003 55.52 83.5003 55.52C84.9403 55.52 86.5403 55.04 88.3003 54.08C90.1403 53.12 91.9803 51.88 93.8203 50.36C95.6603 48.84 97.3803 47.28 98.9803 45.68C100.58 44 101.9 42.48 102.94 41.12C103.18 40.8 103.46 40.64 103.78 40.64C104.26 40.64 104.62 40.88 104.86 41.36C105.18 41.76 105.18 42.16 104.86 42.56C103.82 44.08 102.38 45.72 100.54 47.48C98.7803 49.24 96.8603 50.92 94.7803 52.52C92.7003 54.12 90.6203 55.44 88.5403 56.48C86.4603 57.44 84.6203 57.92 83.0203 57.92C81.5003 57.92 80.3803 57.48 79.6603 56.6C79.0203 55.72 78.7003 54.6 78.7003 53.24C78.7003 51.56 79.1803 49.64 80.1403 47.48C81.1803 45.24 82.4603 42.8 83.9803 40.16C85.5803 37.44 87.1403 34.92 88.6603 32.6C90.2603 30.2 91.4603 28.4 92.2603 27.2C92.8203 26.4 93.1003 25.6 93.1003 24.8C93.1003 23.28 92.3003 22.52 90.7003 22.52C89.8203 22.52 88.7403 22.92 87.4603 23.72C86.2603 24.52 85.0203 25.84 83.7403 27.68C81.9803 30.32 80.0203 33.36 77.8603 36.8C75.7803 40.24 73.6603 43.48 71.5003 46.52C69.3403 49.48 67.1003 52.12 64.7803 54.44C62.5403 56.76 60.2603 57.92 57.9403 57.92ZM48.8203 43.16C48.4203 43.16 48.1003 42.96 47.8603 42.56C47.5403 42.16 47.5403 41.72 47.8603 41.24C49.2203 39.32 50.7803 37.24 52.5403 35C54.3803 32.68 56.4203 30.52 58.6603 28.52C60.9003 26.44 63.3003 24.76 65.8603 23.48C68.4203 22.12 71.1003 21.44 73.9003 21.44C74.7803 21.44 75.6603 21.56 76.5403 21.8C77.4203 21.96 78.2603 22.2 79.0603 22.52C79.5403 22.76 79.7803 23.12 79.7803 23.6C79.7803 23.92 79.6203 24.24 79.3003 24.56C78.9803 24.8 78.5803 24.84 78.1003 24.68C78.1003 24.68 77.9803 24.64 77.7403 24.56C77.5003 24.48 77.1803 24.4 76.7803 24.32C76.3803 24.16 75.9403 24.04 75.4603 23.96C74.9803 23.88 74.4603 23.84 73.9003 23.84C70.6203 23.84 67.5003 24.84 64.5403 26.84C61.5803 28.84 58.8203 31.28 56.2603 34.16C53.7803 37.04 51.6203 39.84 49.7803 42.56C49.5403 42.96 49.2203 43.16 48.8203 43.16ZM79.1803 65.6C75.5803 65.6 72.9803 64.64 71.3803 62.72C69.8603 60.72 69.1003 58.56 69.1003 56.24C69.1003 54.32 69.5803 52.48 70.5403 50.72C70.7803 50.32 71.1403 50.12 71.6203 50.12C72.0203 50.12 72.3403 50.32 72.5803 50.72C72.9003 51.04 72.9403 51.44 72.7003 51.92C71.9003 53.36 71.5003 54.8 71.5003 56.24C71.5003 58 72.1003 59.6 73.3003 61.04C74.5003 62.48 76.4603 63.2 79.1803 63.2C82.2203 63.2 85.1003 62.56 87.8203 61.28C90.6203 59.92 93.2603 58.32 95.7403 56.48C95.9003 56.32 96.1403 56.24 96.4603 56.24C97.2603 56.24 97.6603 56.64 97.6603 57.44C97.6603 57.84 97.5003 58.16 97.1803 58.4C94.6203 60.32 91.8603 62 88.9003 63.44C85.9403 64.88 82.7003 65.6 79.1803 65.6ZM56.2603 65.48C53.6203 65.48 51.2603 64.6 49.1803 62.84C47.1803 61.08 46.2603 58.36 46.4203 54.68C46.4203 53.96 46.8203 53.6 47.6203 53.6C47.9403 53.6 48.2603 53.72 48.5803 53.96C48.8203 54.12 48.9003 54.4 48.8203 54.8C48.7403 57.68 49.4603 59.8 50.9803 61.16C52.5003 62.44 54.2603 63.08 56.2603 63.08C57.8603 63.08 59.4603 62.72 61.0603 62C62.6603 61.2 63.9803 60.08 65.0203 58.64C65.2603 58.32 65.5803 58.16 65.9803 58.16C66.3803 58.16 66.7403 58.36 67.0603 58.76C67.3803 59.16 67.3403 59.6 66.9403 60.08C65.6603 61.84 64.0603 63.2 62.1403 64.16C60.2203 65.04 58.2603 65.48 56.2603 65.48ZM103.898 43.16C103.498 43.16 103.178 42.92 102.938 42.44C102.618 41.96 102.618 41.52 102.938 41.12C105.418 38.32 107.538 35.84 109.298 33.68C111.138 31.44 112.858 29.2 114.458 26.96C116.138 24.72 117.938 22.24 119.858 19.52C120.738 18.32 121.738 17.48 122.858 17C123.978 16.44 125.058 16.16 126.098 16.16C127.778 16.16 129.218 16.64 130.418 17.6C131.698 18.56 132.338 19.64 132.338 20.84C132.338 21.56 132.058 22.24 131.498 22.88C131.258 23.12 130.978 23.24 130.658 23.24C130.258 23.24 129.898 23.04 129.578 22.64C129.338 22.16 129.418 21.68 129.818 21.2C129.898 21.12 129.938 20.96 129.938 20.72C129.938 20.48 129.818 20.2 129.578 19.88C129.338 19.56 128.778 19.24 127.898 18.92C127.338 18.68 126.738 18.56 126.098 18.56C125.378 18.56 124.618 18.76 123.818 19.16C123.098 19.48 122.418 20.08 121.778 20.96C119.778 23.68 117.938 26.16 116.258 28.4C114.658 30.64 112.978 32.88 111.218 35.12C109.458 37.36 107.338 39.88 104.858 42.68C104.618 43 104.298 43.16 103.898 43.16ZM145.778 56.72C144.498 56.72 143.298 56.44 142.178 55.88C141.138 55.24 140.618 54.32 140.618 53.12C140.618 52.32 140.818 51.56 141.218 50.84C141.778 49.8 142.658 48.24 143.858 46.16C145.058 44 146.298 41.76 147.578 39.44C148.858 37.04 149.938 34.84 150.818 32.84C151.698 30.76 152.138 29.24 152.138 28.28C152.138 26.44 151.338 25.04 149.738 24.08C148.218 23.12 146.458 22.64 144.458 22.64C141.338 22.64 138.418 23.52 135.698 25.28C132.978 26.96 130.498 29 128.258 31.4C126.018 33.8 123.978 36.12 122.138 38.36C121.898 38.68 121.578 38.84 121.178 38.84C120.778 38.84 120.418 38.64 120.098 38.24C119.858 37.76 119.898 37.32 120.218 36.92C122.298 34.44 124.538 31.92 126.938 29.36C129.338 26.8 131.978 24.64 134.858 22.88C137.818 21.12 141.018 20.24 144.458 20.24C145.898 20.24 147.378 20.52 148.898 21.08C150.498 21.56 151.818 22.4 152.858 23.6C153.978 24.8 154.538 26.36 154.538 28.28C154.538 29.48 154.058 31.16 153.098 33.32C152.218 35.4 151.138 37.68 149.858 40.16C148.578 42.56 147.338 44.84 146.138 47C144.938 49.16 144.018 50.84 143.378 52.04C143.138 52.36 143.018 52.68 143.018 53C143.018 53.56 143.338 53.92 143.978 54.08C144.618 54.24 145.218 54.32 145.778 54.32C147.618 54.32 149.538 53.52 151.538 51.92C153.538 50.32 155.418 48.48 157.178 46.4C158.938 44.24 160.298 42.48 161.258 41.12C161.498 40.8 161.778 40.64 162.098 40.64C162.498 40.64 162.858 40.84 163.178 41.24C163.578 41.64 163.578 42.08 163.178 42.56C162.058 44.16 160.538 46.08 158.618 48.32C156.778 50.56 154.738 52.52 152.498 54.2C150.258 55.88 148.018 56.72 145.778 56.72ZM107.858 65.36C106.178 65.36 104.938 64.8 104.138 63.68C103.418 62.56 103.058 61.36 103.058 60.08C103.058 59.04 103.498 57.6 104.378 55.76C105.258 53.92 106.298 51.96 107.498 49.88C108.778 47.8 109.978 45.84 111.098 44C112.218 42.16 113.058 40.68 113.618 39.56C113.858 39.08 114.218 38.84 114.698 38.84C115.098 38.84 115.418 39 115.658 39.32C115.978 39.64 116.018 40.04 115.778 40.52C115.298 41.48 114.498 42.88 113.378 44.72C112.338 46.56 111.178 48.52 109.898 50.6C108.698 52.68 107.658 54.6 106.778 56.36C105.898 58.04 105.458 59.28 105.458 60.08C105.458 62 106.258 62.96 107.858 62.96C109.458 62.96 110.898 62.24 112.178 60.8C113.458 59.28 114.738 57.32 116.018 54.92C117.298 52.52 118.738 49.92 120.338 47.12C121.938 44.32 123.818 41.56 125.978 38.84C128.138 36.04 130.738 33.56 133.778 31.4C136.818 29.16 140.458 27.52 144.698 26.48H145.058C145.858 26.48 146.258 26.88 146.258 27.68C146.258 28.24 145.938 28.6 145.298 28.76C141.218 29.8 137.698 31.4 134.738 33.56C131.858 35.72 129.378 38.2 127.298 41C125.218 43.72 123.378 46.52 121.778 49.4C120.258 52.28 118.818 54.92 117.458 57.32C116.098 59.72 114.658 61.68 113.138 63.2C111.618 64.64 109.858 65.36 107.858 65.36ZM139.658 65.48C137.178 65.48 134.978 64.72 133.058 63.2C131.218 61.68 130.298 59.48 130.298 56.6C130.298 56.28 130.298 56 130.298 55.76C130.298 55.44 130.338 55.12 130.418 54.8C130.658 52.96 131.258 50.88 132.218 48.56C133.258 46.24 134.418 43.96 135.698 41.72C137.058 39.48 138.258 37.6 139.298 36.08C139.538 35.68 139.858 35.48 140.258 35.48C140.658 35.48 140.978 35.68 141.218 36.08C141.538 36.48 141.538 36.96 141.218 37.52C141.218 37.52 140.818 38.12 140.018 39.32C139.218 40.44 138.338 41.92 137.378 43.76C136.178 45.92 135.098 48.16 134.138 50.48C133.178 52.8 132.698 54.8 132.698 56.48C132.698 58.64 133.338 60.28 134.618 61.4C135.978 62.52 137.658 63.08 139.658 63.08C142.218 63.08 144.738 62.56 147.218 61.52C149.698 60.48 151.938 59.2 153.938 57.68C154.098 57.52 154.338 57.44 154.658 57.44C155.458 57.44 155.858 57.84 155.858 58.64C155.858 59.04 155.698 59.36 155.378 59.6C153.138 61.28 150.698 62.68 148.058 63.8C145.418 64.92 142.618 65.48 139.658 65.48ZM191.058 18.92C190.578 18.92 190.178 18.72 189.858 18.32C189.618 17.84 189.698 17.36 190.098 16.88L198.618 7.64C199.018 7.24 199.218 6.72 199.218 6.08C199.218 5.36 198.858 4.72 198.138 4.16C197.498 3.6 196.738 3.32 195.858 3.32C195.058 3.32 194.218 3.68 193.338 4.4C192.378 5.2 190.898 6.72 188.898 8.96C186.898 11.2 184.618 13.88 182.058 17C182.058 17.08 181.938 17.2 181.698 17.36C181.458 17.44 181.298 17.48 181.218 17.48H171.738C170.938 17.48 170.538 17.08 170.538 16.28C170.538 15.48 170.938 15.08 171.738 15.08H180.618C183.018 12.04 185.218 9.44 187.218 7.28C189.218 5.04 190.698 3.48 191.658 2.6C192.858 1.48 194.258 0.919995 195.858 0.919995C197.458 0.919995 198.818 1.44 199.938 2.48C201.058 3.44 201.618 4.6 201.618 5.96C201.618 7.16 201.218 8.2 200.418 9.08C200.258 9.32 199.698 9.96 198.738 11C197.858 12.04 196.778 13.24 195.498 14.6C194.218 15.96 193.018 17.28 191.898 18.56C191.658 18.8 191.378 18.92 191.058 18.92ZM162.138 43.04C161.418 43.04 161.058 42.68 161.058 41.96C161.058 41.72 161.258 41.32 161.658 40.76C163.738 38.2 166.138 35.16 168.858 31.64C171.578 28.12 174.298 24.44 177.018 20.6C177.258 20.28 177.538 20.12 177.858 20.12C178.338 20.12 178.698 20.36 178.938 20.84C179.258 21.24 179.258 21.64 178.938 22.04C176.218 25.88 173.498 29.6 170.778 33.2C168.058 36.72 165.538 39.84 163.218 42.56C162.898 42.88 162.538 43.04 162.138 43.04ZM175.578 57.92C172.618 57.92 170.418 56.76 168.978 54.44C168.658 53.8 168.378 53.16 168.138 52.52C167.898 51.8 167.778 51.04 167.778 50.24C167.778 48.88 168.098 47.32 168.738 45.56C169.458 43.72 170.578 41.76 172.098 39.68C172.978 38.4 174.258 36.76 175.938 34.76C177.618 32.68 179.378 30.52 181.218 28.28C183.138 25.96 184.778 23.84 186.138 21.92C186.138 21.84 186.258 21.76 186.498 21.68C186.818 21.52 187.018 21.44 187.098 21.44H197.418C198.218 21.44 198.618 21.84 198.618 22.64C198.618 23.44 198.218 23.84 197.418 23.84H187.698C186.338 25.76 184.738 27.84 182.898 30.08C181.138 32.24 179.418 34.32 177.738 36.32C176.138 38.32 174.898 39.92 174.018 41.12C172.658 43.12 171.698 44.88 171.138 46.4C170.578 47.84 170.298 49.12 170.298 50.24C170.298 51.44 170.538 52.4 171.018 53.12C171.978 54.72 173.498 55.52 175.578 55.52C177.658 55.52 179.778 54.84 181.938 53.48C184.178 52.04 186.378 50.24 188.538 48.08C190.698 45.84 192.658 43.52 194.418 41.12C194.658 40.8 194.978 40.64 195.378 40.64C195.778 40.64 196.138 40.84 196.458 41.24C196.778 41.64 196.738 42.08 196.338 42.56C193.378 46.72 190.018 50.32 186.258 53.36C182.498 56.4 178.938 57.92 175.578 57.92ZM171.738 65.12C168.618 65.12 166.098 64.24 164.178 62.48C162.338 60.64 161.498 58.04 161.658 54.68C161.658 53.96 162.058 53.6 162.858 53.6C163.178 53.6 163.458 53.72 163.698 53.96C164.018 54.12 164.138 54.4 164.058 54.8C163.978 57.04 164.618 58.96 165.978 60.56C167.418 62.08 169.498 62.84 172.218 62.84C174.138 62.84 176.338 62.36 178.818 61.4C181.378 60.36 184.138 58.72 187.098 56.48C187.258 56.32 187.498 56.24 187.818 56.24C188.618 56.24 189.018 56.64 189.018 57.44C189.018 57.84 188.858 58.16 188.538 58.4C185.578 60.64 182.618 62.32 179.658 63.44C176.778 64.56 174.138 65.12 171.738 65.12ZM204.542 57.92C202.622 57.92 201.342 57.16 200.702 55.64C200.142 54.04 199.862 52.72 199.862 51.68C199.862 49.68 200.542 47.32 201.902 44.6C203.262 41.88 205.022 39.2 207.182 36.56C209.342 33.92 211.662 31.72 214.142 29.96C216.622 28.2 218.982 27.32 221.222 27.32C222.342 27.32 222.902 27.72 222.902 28.52C222.902 28.84 222.782 29.16 222.542 29.48C222.302 29.72 221.982 29.8 221.582 29.72C219.822 29.56 217.822 30.28 215.582 31.88C213.422 33.4 211.302 35.4 209.222 37.88C207.222 40.28 205.542 42.72 204.182 45.2C202.902 47.68 202.262 49.84 202.262 51.68C202.262 52.8 202.462 53.72 202.862 54.44C203.262 55.16 203.822 55.52 204.542 55.52C205.902 55.52 207.462 54.72 209.222 53.12C211.062 51.44 212.942 49.36 214.862 46.88C216.782 44.32 218.622 41.68 220.382 38.96C222.222 36.16 223.822 33.64 225.182 31.4C226.622 29.08 227.702 27.36 228.422 26.24C229.942 24 231.462 22.44 232.982 21.56C234.502 20.6 235.902 20.12 237.182 20.12C238.622 20.12 239.782 20.56 240.662 21.44C241.622 22.32 242.102 23.44 242.102 24.8C242.102 26 241.662 27.28 240.782 28.64C240.142 29.6 239.102 31.2 237.662 33.44C236.222 35.6 234.742 37.96 233.222 40.52C231.702 43 230.422 45.28 229.382 47.36C228.262 49.76 227.702 51.68 227.702 53.12C227.702 54.72 228.502 55.52 230.102 55.52C231.542 55.52 233.142 55.04 234.902 54.08C236.742 53.12 238.582 51.88 240.422 50.36C242.262 48.84 243.982 47.28 245.582 45.68C247.182 44 248.502 42.48 249.542 41.12C249.782 40.8 250.062 40.64 250.382 40.64C250.862 40.64 251.222 40.88 251.462 41.36C251.782 41.76 251.782 42.16 251.462 42.56C250.422 44.08 248.982 45.72 247.142 47.48C245.382 49.24 243.462 50.92 241.382 52.52C239.302 54.12 237.222 55.44 235.142 56.48C233.062 57.44 231.222 57.92 229.622 57.92C228.102 57.92 226.982 57.48 226.262 56.6C225.622 55.72 225.302 54.6 225.302 53.24C225.302 51.56 225.782 49.64 226.742 47.48C227.782 45.24 229.062 42.8 230.582 40.16C232.182 37.44 233.742 34.92 235.262 32.6C236.862 30.2 238.062 28.4 238.862 27.2C239.422 26.4 239.702 25.6 239.702 24.8C239.702 23.28 238.902 22.52 237.302 22.52C236.422 22.52 235.342 22.92 234.062 23.72C232.862 24.52 231.622 25.84 230.342 27.68C228.582 30.32 226.622 33.36 224.462 36.8C222.382 40.24 220.262 43.48 218.102 46.52C215.942 49.48 213.702 52.12 211.382 54.44C209.142 56.76 206.862 57.92 204.542 57.92ZM195.422 43.16C195.022 43.16 194.702 42.96 194.462 42.56C194.142 42.16 194.142 41.72 194.462 41.24C195.822 39.32 197.382 37.24 199.142 35C200.982 32.68 203.022 30.52 205.262 28.52C207.502 26.44 209.902 24.76 212.462 23.48C215.022 22.12 217.702 21.44 220.502 21.44C221.382 21.44 222.262 21.56 223.142 21.8C224.022 21.96 224.862 22.2 225.662 22.52C226.142 22.76 226.382 23.12 226.382 23.6C226.382 23.92 226.222 24.24 225.902 24.56C225.582 24.8 225.182 24.84 224.702 24.68C224.702 24.68 224.582 24.64 224.342 24.56C224.102 24.48 223.782 24.4 223.382 24.32C222.982 24.16 222.542 24.04 222.062 23.96C221.582 23.88 221.062 23.84 220.502 23.84C217.222 23.84 214.102 24.84 211.142 26.84C208.182 28.84 205.422 31.28 202.862 34.16C200.382 37.04 198.222 39.84 196.382 42.56C196.142 42.96 195.822 43.16 195.422 43.16ZM225.782 65.6C222.182 65.6 219.582 64.64 217.982 62.72C216.462 60.72 215.702 58.56 215.702 56.24C215.702 54.32 216.182 52.48 217.142 50.72C217.382 50.32 217.742 50.12 218.222 50.12C218.622 50.12 218.942 50.32 219.182 50.72C219.502 51.04 219.542 51.44 219.302 51.92C218.502 53.36 218.102 54.8 218.102 56.24C218.102 58 218.702 59.6 219.902 61.04C221.102 62.48 223.062 63.2 225.782 63.2C228.822 63.2 231.702 62.56 234.422 61.28C237.222 59.92 239.862 58.32 242.342 56.48C242.502 56.32 242.742 56.24 243.062 56.24C243.862 56.24 244.262 56.64 244.262 57.44C244.262 57.84 244.102 58.16 243.782 58.4C241.222 60.32 238.462 62 235.502 63.44C232.542 64.88 229.302 65.6 225.782 65.6ZM202.862 65.48C200.222 65.48 197.862 64.6 195.782 62.84C193.782 61.08 192.862 58.36 193.022 54.68C193.022 53.96 193.422 53.6 194.222 53.6C194.542 53.6 194.862 53.72 195.182 53.96C195.422 54.12 195.502 54.4 195.422 54.8C195.342 57.68 196.062 59.8 197.582 61.16C199.102 62.44 200.862 63.08 202.862 63.08C204.462 63.08 206.062 62.72 207.662 62C209.262 61.2 210.582 60.08 211.622 58.64C211.862 58.32 212.182 58.16 212.582 58.16C212.982 58.16 213.342 58.36 213.662 58.76C213.982 59.16 213.942 59.6 213.542 60.08C212.262 61.84 210.662 63.2 208.742 64.16C206.822 65.04 204.862 65.48 202.862 65.48ZM262.02 57.92C260.1 57.92 258.82 57.16 258.18 55.64C257.62 54.04 257.34 52.72 257.34 51.68C257.34 49.68 258.02 47.28 259.38 44.48C260.82 41.68 262.66 38.92 264.9 36.2C267.14 33.48 269.54 31.24 272.1 29.48C274.66 27.64 277.06 26.72 279.3 26.72C280.26 26.72 280.74 27.12 280.74 27.92C280.74 28.24 280.62 28.56 280.38 28.88C280.14 29.12 279.82 29.2 279.42 29.12C277.66 29.04 275.66 29.8 273.42 31.4C271.18 33 269.02 35.04 266.94 37.52C264.86 40 263.14 42.52 261.78 45.08C260.42 47.64 259.74 49.84 259.74 51.68C259.74 52.8 259.94 53.72 260.34 54.44C260.74 55.16 261.3 55.52 262.02 55.52C263.22 55.52 264.58 54.68 266.1 53C267.62 51.32 269.3 49.16 271.14 46.52C272.98 43.8 274.9 41 276.9 38.12C278.98 35 281.06 32.04 283.14 29.24C285.3 26.36 287.38 24.04 289.38 22.28C291.46 20.44 293.42 19.52 295.26 19.52C296.3 19.52 297.26 19.84 298.14 20.48C299.02 21.12 299.46 22.12 299.46 23.48C299.46 23.64 299.22 24.52 298.74 26.12C298.26 27.64 297.66 29.52 296.94 31.76C296.3 34 295.62 36.24 294.9 38.48C294.18 40.64 293.54 42.56 292.98 44.24C292.5 45.84 292.18 46.8 292.02 47.12C291.78 47.6 291.46 47.84 291.06 47.84C290.66 47.84 290.3 47.68 289.98 47.36C289.74 47.04 289.7 46.64 289.86 46.16C290.02 45.84 290.34 44.88 290.82 43.28C291.38 41.68 291.98 39.8 292.62 37.64C293.34 35.48 294.02 33.32 294.66 31.16C295.38 29 295.94 27.2 296.34 25.76C296.82 24.32 297.06 23.56 297.06 23.48C297.06 22.44 296.46 21.92 295.26 21.92C294.22 21.92 293.18 22.32 292.14 23.12C290.14 24.4 287.98 26.64 285.66 29.84C283.34 32.96 281.02 36.28 278.7 39.8C276.7 42.76 274.7 45.64 272.7 48.44C270.78 51.24 268.9 53.52 267.06 55.28C265.22 57.04 263.54 57.92 262.02 57.92ZM250.14 43.28C249.74 43.28 249.42 43.12 249.18 42.8C248.94 42.4 248.98 41.96 249.3 41.48C252.26 37.96 255.26 34.64 258.3 31.52C261.34 28.4 264.5 25.84 267.78 23.84C271.14 21.84 274.7 20.84 278.46 20.84C279.58 20.84 280.58 20.92 281.46 21.08C282.42 21.24 283.22 21.56 283.86 22.04C284.18 22.28 284.34 22.6 284.34 23C284.34 23.4 284.14 23.76 283.74 24.08C283.34 24.32 282.9 24.28 282.42 23.96C281.86 23.48 280.54 23.24 278.46 23.24C275.18 23.24 272.02 24.16 268.98 26C265.94 27.76 262.98 30.12 260.1 33.08C257.22 36.04 254.3 39.24 251.34 42.68C251.02 43.08 250.62 43.28 250.14 43.28ZM245.7 92.72C244.66 92.8 243.58 92.52 242.46 91.88C241.26 91.32 240.66 90.28 240.66 88.76C240.66 87 241.5 85.12 243.18 83.12C244.86 81.2 246.98 79.28 249.54 77.36C252.02 75.52 254.54 73.8 257.1 72.2C259.66 70.6 261.82 69.24 263.58 68.12C263.9 67.96 264.1 67.88 264.18 67.88C264.58 67.88 264.86 68 265.02 68.24C265.26 68.56 265.38 68.88 265.38 69.2C265.38 69.6 265.22 69.92 264.9 70.16C263.46 71.12 261.58 72.32 259.26 73.76C256.94 75.2 254.62 76.72 252.3 78.32C249.98 80 247.98 81.68 246.3 83.36C244.54 85.04 243.46 86.6 243.06 88.04C243.06 88.12 243.06 88.2 243.06 88.28C242.98 88.44 242.94 88.56 242.94 88.64C242.94 89.76 243.7 90.32 245.22 90.32C248.02 90.32 251.06 89.16 254.34 86.84C257.7 84.52 261.02 81.4 264.3 77.48C267.58 73.64 270.66 69.4 273.54 64.76C276.42 60.04 278.86 55.32 280.86 50.6C282.86 45.88 284.18 41.56 284.82 37.64C284.9 37 285.3 36.68 286.02 36.68C286.34 36.68 286.62 36.8 286.86 37.04C287.18 37.28 287.3 37.64 287.22 38.12C286.58 42.04 285.26 46.4 283.26 51.2C281.26 56 278.78 60.8 275.82 65.6C272.86 70.4 269.66 74.8 266.22 78.8C262.78 82.88 259.3 86.16 255.78 88.64C252.26 91.2 248.9 92.56 245.7 92.72ZM244.74 101.12C242.82 101.12 241.02 100.56 239.34 99.44C237.58 98.4 236.86 96.6 237.18 94.04C237.18 93.32 237.54 92.96 238.26 92.96C238.58 92.96 238.9 93.08 239.22 93.32C239.46 93.56 239.54 93.88 239.46 94.28C239.3 95.8 239.74 96.92 240.78 97.64C241.74 98.36 243.06 98.72 244.74 98.72C248.58 98.72 252.26 97.76 255.78 95.84C259.38 94 262.78 91.48 265.98 88.28C269.26 85.16 272.22 81.68 274.86 77.84C277.58 74 279.98 70.08 282.06 66.08C284.22 62.16 285.94 58.44 287.22 54.92C287.54 54.04 287.74 53.48 287.82 53.24C287.98 52.92 288.5 52.56 289.38 52.16C291.14 51.36 293.34 50.16 295.98 48.56C298.62 46.96 301.34 44.36 304.14 40.76C304.38 40.44 304.7 40.28 305.1 40.28C305.5 40.28 305.82 40.52 306.06 41C306.38 41.4 306.38 41.8 306.06 42.2C303.66 45.4 301.1 47.92 298.38 49.76C295.66 51.52 292.78 53.2 289.74 54.8C288.46 58.24 286.78 62.04 284.7 66.2C282.62 70.36 280.14 74.48 277.26 78.56C274.46 82.64 271.34 86.36 267.9 89.72C264.54 93.16 260.9 95.92 256.98 98C253.06 100.08 248.98 101.12 244.74 101.12ZM258.78 65.72C255.82 65.72 253.34 64.8 251.34 62.96C249.34 61.12 248.34 58.6 248.34 55.4C248.34 55 248.38 54.56 248.46 54.08C248.46 53.6 248.5 53.12 248.58 52.64C248.66 52 249.02 51.68 249.66 51.68C250.54 51.68 250.98 52.08 250.98 52.88C250.98 53.28 250.94 53.72 250.86 54.2C250.78 54.6 250.74 54.96 250.74 55.28C250.74 57.76 251.5 59.72 253.02 61.16C254.54 62.6 256.42 63.32 258.66 63.32C261.14 63.32 263.86 62.44 266.82 60.68C269.78 58.92 272.54 56 275.1 51.92C275.34 51.52 275.66 51.32 276.06 51.32C276.46 51.32 276.78 51.52 277.02 51.92C277.34 52.24 277.34 52.64 277.02 53.12C274.3 57.44 271.3 60.64 268.02 62.72C264.82 64.72 261.74 65.72 258.78 65.72ZM322.395 57.56C321.115 57.56 320.195 57.08 319.635 56.12C319.155 55.16 318.835 54.16 318.675 53.12C318.515 51.04 318.675 48.48 319.155 45.44C319.635 42.32 320.475 39 321.675 35.48C322.875 31.96 324.515 28.56 326.595 25.28C326.755 24.96 326.675 24.48 326.355 23.84C326.035 23.12 325.115 22.6 323.595 22.28C323.355 22.2 323.115 22.16 322.875 22.16C322.635 22.08 322.355 22.04 322.035 22.04C320.995 22.04 319.915 22.36 318.795 23C317.755 23.56 316.795 24.6 315.915 26.12C314.875 27.88 313.435 30.36 311.595 33.56C309.835 36.76 307.915 39.76 305.835 42.56C305.595 42.88 305.275 43.04 304.875 43.04C304.475 43.04 304.155 42.84 303.915 42.44C303.595 42.04 303.595 41.6 303.915 41.12C305.995 38.32 307.915 35.36 309.675 32.24C311.435 29.12 312.795 26.68 313.755 24.92C314.875 23 316.155 21.64 317.595 20.84C319.035 20.04 320.515 19.64 322.035 19.64C323.955 19.64 325.635 20.16 327.075 21.2C328.515 22.16 329.235 23.32 329.235 24.68C329.235 25.24 329.035 25.84 328.635 26.48C325.915 30.88 323.955 35.36 322.755 39.92C321.555 44.48 320.955 48.24 320.955 51.2C320.955 52.72 321.075 53.76 321.315 54.32C321.635 54.88 322.035 55.16 322.515 55.16C323.235 55.16 324.035 54.76 324.915 53.96C325.875 53.08 326.675 52.2 327.315 51.32C328.035 50.36 328.435 49.8 328.515 49.64C329.875 47.72 331.235 45.28 332.595 42.32C333.955 39.36 335.235 36.32 336.435 33.2C337.635 30.08 338.675 27.4 339.555 25.16C340.195 23.4 341.395 22.08 343.155 21.2C344.915 20.24 346.675 19.76 348.435 19.76C349.955 19.76 351.235 20.12 352.275 20.84C353.395 21.56 353.955 22.72 353.955 24.32C353.955 24.64 353.955 24.96 353.955 25.28C353.955 25.52 353.875 25.84 353.715 26.24C353.555 26.96 353.115 28.36 352.395 30.44C351.675 32.52 350.875 34.8 349.995 37.28C349.115 39.68 348.315 41.84 347.595 43.76C346.875 45.6 346.435 46.72 346.275 47.12C346.035 47.6 345.715 47.84 345.315 47.84C344.915 47.84 344.555 47.68 344.235 47.36C343.995 47.04 343.955 46.64 344.115 46.16C344.275 45.76 344.675 44.64 345.315 42.8C346.035 40.88 346.795 38.76 347.595 36.44C348.475 34.04 349.275 31.84 349.995 29.84C350.715 27.76 351.155 26.4 351.315 25.76C351.395 25.44 351.435 25.04 351.435 24.56C351.435 23.68 351.155 23.08 350.595 22.76C350.035 22.36 349.355 22.16 348.555 22.16C347.275 22.16 345.915 22.56 344.475 23.36C343.115 24.08 342.195 25 341.715 26.12C341.235 27.4 340.515 29.32 339.555 31.88C338.595 34.36 337.475 37.08 336.195 40.04C334.995 42.92 333.635 45.72 332.115 48.44C330.595 51.08 328.995 53.28 327.315 55.04C325.715 56.72 324.075 57.56 322.395 57.56ZM304.035 53.6C303.555 53.6 303.195 53.36 302.955 52.88C302.635 52.4 302.715 51.96 303.195 51.56C306.235 48.6 308.555 45.84 310.155 43.28C311.835 40.72 313.675 37.68 315.675 34.16C315.915 33.76 316.275 33.56 316.755 33.56C317.155 33.56 317.515 33.76 317.835 34.16C318.155 34.48 318.155 34.88 317.835 35.36C315.835 38.96 313.955 42.08 312.195 44.72C310.435 47.36 307.995 50.2 304.875 53.24C304.635 53.48 304.355 53.6 304.035 53.6ZM298.995 101.12C297.075 101.12 295.275 100.56 293.595 99.44C291.835 98.4 291.115 96.6 291.435 94.04C291.435 93.32 291.795 92.96 292.515 92.96C292.835 92.96 293.155 93.08 293.475 93.32C293.715 93.56 293.795 93.88 293.715 94.28C293.555 95.8 293.995 96.92 295.035 97.64C295.995 98.36 297.315 98.72 298.995 98.72C302.915 98.72 306.715 97.72 310.395 95.72C314.075 93.8 317.515 91.2 320.715 87.92C323.995 84.64 326.995 81 329.715 77C332.515 73 334.915 68.96 336.915 64.88C338.995 60.8 340.675 57.04 341.955 53.6C342.195 53.2 342.715 52.76 343.515 52.28C346.235 50.84 348.875 49.24 351.435 47.48C354.075 45.72 356.315 43.6 358.155 41.12C358.395 40.72 358.715 40.52 359.115 40.52C359.515 40.52 359.875 40.76 360.195 41.24C360.515 41.72 360.475 42.16 360.075 42.56C357.755 45.68 355.115 48.16 352.155 50C349.275 51.84 346.555 53.44 343.995 54.8C342.715 58.24 341.035 62.04 338.955 66.2C336.875 70.36 334.395 74.48 331.515 78.56C328.715 82.64 325.595 86.36 322.155 89.72C318.795 93.16 315.155 95.92 311.235 98C307.315 100.08 303.235 101.12 298.995 101.12ZM321.315 65.48C318.675 65.48 316.515 64.84 314.835 63.56C313.235 62.28 312.075 60.64 311.355 58.64C310.635 56.64 310.315 54.64 310.395 52.64C310.395 51.84 310.795 51.44 311.595 51.44C312.395 51.44 312.795 51.84 312.795 52.64C312.715 55.44 313.355 57.88 314.715 59.96C316.155 62.04 318.355 63.08 321.315 63.08C323.235 63.08 325.275 62.08 327.435 60.08C329.595 58.08 331.715 55.48 333.795 52.28C335.955 49.08 337.915 45.68 339.675 42.08C339.915 41.6 340.275 41.36 340.755 41.36C341.155 41.36 341.475 41.52 341.715 41.84C342.035 42.16 342.075 42.56 341.835 43.04C340.155 46.48 338.195 49.96 335.955 53.48C333.715 56.92 331.355 59.8 328.875 62.12C326.395 64.36 323.875 65.48 321.315 65.48ZM299.595 92.72C298.555 92.72 297.515 92.4 296.475 91.76C295.355 91.2 294.795 90.24 294.795 88.88C294.795 88.64 294.835 88.4 294.915 88.16C294.915 87.92 294.955 87.68 295.035 87.44C295.435 86 296.475 84.36 298.155 82.52C299.755 80.76 301.715 78.96 304.035 77.12C306.355 75.36 308.635 73.8 310.875 72.44C313.195 71.08 315.115 70.12 316.635 69.56C316.715 69.48 316.875 69.44 317.115 69.44C317.915 69.44 318.315 69.88 318.315 70.76C318.315 71.16 318.075 71.48 317.595 71.72C316.155 72.28 314.355 73.2 312.195 74.48C310.115 75.76 307.955 77.2 305.715 78.8C303.555 80.48 301.715 82.12 300.195 83.72C298.595 85.4 297.635 86.84 297.315 88.04C297.315 88.12 297.315 88.2 297.315 88.28C297.235 88.44 297.195 88.56 297.195 88.64C297.195 89.76 297.955 90.32 299.475 90.32C301.715 90.32 304.195 89.48 306.915 87.8C309.715 86.2 312.515 84.08 315.315 81.44C318.115 78.88 320.675 76.2 322.995 73.4C325.395 70.6 327.275 68 328.635 65.6C328.875 65.2 329.235 65 329.715 65C330.115 65 330.475 65.16 330.795 65.48C331.115 65.88 331.115 66.32 330.795 66.8C329.435 69.2 327.515 71.88 325.035 74.84C322.635 77.8 319.915 80.64 316.875 83.36C313.915 86.08 310.915 88.32 307.875 90.08C304.915 91.84 302.155 92.72 299.595 92.72Z"
    fill="#f4f4f5"></path>
  <title>Rantagy</title>
</svg>